HIERARCHY
ROOT SpineBase
{
  OFFSET 0.000000 0.000000 0.000000
  CHANNELS 6 Xposition Yposition Zposition Zrotation Xrotation Yrotation
  JOINT SpineMid
  {
    OFFSET 0.000000 32.593125 -0.000000
    CHANNELS 3 Zrotation Xrotation Yrotation
    JOINT SpineShoulder
    {
      OFFSET -0.292284 24.273947 -0.927539
      CHANNELS 3 Zrotation Xrotation Yrotation
      JOINT Neck
      {
        OFFSET -0.217500 8.040610 -0.636100
        CHANNELS 3 Zrotation Xrotation Yrotation
        JOINT Head
        {
          OFFSET 1.089190 13.038396 2.055591
          CHANNELS 3 Zrotation Xrotation Yrotation
          End Site
          {
            OFFSET 0 0 0
          }
        }
      }
      JOINT ShoulderLeft
      {
        OFFSET -14.515169 -6.672316 -8.116601
        CHANNELS 3 Zrotation Xrotation Yrotation
        JOINT ElbowLeft
        {
          OFFSET -5.228977 -27.573493 1.016432
          CHANNELS 3 Zrotation Xrotation Yrotation
          JOINT WristLeft
          {
            OFFSET -7.746599 -20.853920 10.524445
            CHANNELS 3 Zrotation Xrotation Yrotation
            JOINT HandLeft
            {
              OFFSET -1.332162 -6.382178 3.571463
              CHANNELS 3 Zrotation Xrotation Yrotation
              JOINT HandTipLeft
              {
                OFFSET 1.437353 -6.441981 1.876488
                CHANNELS 3 Zrotation Xrotation Yrotation
                End Site
                {
                  OFFSET 0 0 0
                }
              }
              JOINT ThumbLeft
              {
                OFFSET 2.780075 3.620839 -2.522408
                CHANNELS 3 Zrotation Xrotation Yrotation
                End Site
                {
                  OFFSET 0 0 0
                }
              }
            }
          }
        }
      }
      JOINT ShoulderRight
      {
        OFFSET 15.731576 -6.071899 -1.564837
        CHANNELS 3 Zrotation Xrotation Yrotation
        JOINT ElbowRight
        {
          OFFSET 6.495340 -24.431588 7.149322
          CHANNELS 3 Zrotation Xrotation Yrotation
          JOINT WristRight
          {
            OFFSET -27.492907 -7.333469 -6.585139
            CHANNELS 3 Zrotation Xrotation Yrotation
            JOINT HandRight
            {
              OFFSET -5.009281 -3.469240 -6.355334
              CHANNELS 3 Zrotation Xrotation Yrotation
              JOINT HandTipRight
              {
                OFFSET -5.878743 -8.212431 2.402583
                CHANNELS 3 Zrotation Xrotation Yrotation
                End Site
                {
                  OFFSET 0 0 0
                }
              }
              JOINT ThumbRight
              {
                OFFSET 2.354314 -3.025992 -3.654586
                CHANNELS 3 Zrotation Xrotation Yrotation
                End Site
                {
                  OFFSET 0 0 0
                }
              }
            }
          }
        }
      }
    }
  }
  JOINT HipLeft
  {
    OFFSET -7.469108 1.635449 -4.690336
    CHANNELS 3 Zrotation Xrotation Yrotation
    JOINT KneeLeft
    {
      OFFSET 3.315210 -39.723520 -2.468973
      CHANNELS 3 Zrotation Xrotation Yrotation
      JOINT AnkleLeft
      {
        OFFSET -0.589557 -30.830961 -3.105501
        CHANNELS 3 Zrotation Xrotation Yrotation
        JOINT FootLeft
        {
          OFFSET 5.289496 -5.429314 -1.242807
          CHANNELS 3 Zrotation Xrotation Yrotation
          End Site
          {
            OFFSET 0 0 0
          }
        }
      }
    }
  }
  JOINT HipRight
  {
    OFFSET 5.547262 1.469733 -1.860460
    CHANNELS 3 Zrotation Xrotation Yrotation
    JOINT KneeRight
    {
      OFFSET 1.431923 -38.735347 -2.599006
      CHANNELS 3 Zrotation Xrotation Yrotation
      JOINT AnkleRight
      {
        OFFSET 2.007365 -32.389218 -2.432517
        CHANNELS 3 Zrotation Xrotation Yrotation
        JOINT FootRight
        {
          OFFSET 1.389828 -2.966691 -12.959516
          CHANNELS 3 Zrotation Xrotation Yrotation
          End Site
          {
            OFFSET 0 0 0
          }
        }
      }
    }
  }
}
MOTION
Frames: 5
Frame Time: 0.033333
67.731618 74.835716 236.439496 0.066251 -0.441355 -12.502157 -0.160226 0.416546 12.502994 -0.000000 0.000000 0.000000 -0.328433 -0.865772 0.121740 0.000000 0.000000 0.000000 -0.966871 2.435145 -0.476565 9.195831 15.218911 -3.115616 -2.545533 0.593575 1.528132 -9.923518 6.218725 3.935736 0.000000 0.000000 0.000000 0.000000 0.000000 0.000000 0.554259 -1.679897 -0.274796 6.503227 0.582809 -2.667607 -7.627091 15.457284 -14.562158 -5.081217 -13.314356 11.114935 0.000000 0.000000 0.000000 0.000000 0.000000 0.000000 0.142805 1.178165 12.526707 -2.397346 -0.228465 0.140412 16.153837 0.996162 -1.852169 0.000000 0.000000 0.000000 -1.660124 1.096921 12.647708 3.164113 -0.478851 -0.196469 -1.847417 -0.519632 0.098306 0.000000 0.000000 0.000000
67.753215 74.824946 236.456438 0.103190 -0.431211 -12.528945 -0.194280 0.398556 12.530009 -0.000000 0.000000 0.000000 -0.000000 0.000000 0.000000 0.000000 0.000000 0.000000 -0.961328 2.410736 -0.472057 8.563674 14.202052 -2.866707 -3.107692 0.517792 0.895668 -10.517263 7.264211 4.056546 0.000000 0.000000 0.000000 0.000000 0.000000 0.000000 0.661641 -1.783313 -0.268598 5.997024 0.777194 -2.618994 -8.190997 12.913510 -10.372661 -5.120599 -10.560278 7.607782 0.000000 0.000000 0.000000 0.000000 0.000000 0.000000 0.113456 1.160235 12.553348 -2.343127 -0.180540 0.135213 12.262748 7.642928 4.304436 0.000000 0.000000 0.000000 -1.981167 1.071565 12.698780 3.600322 -0.497881 -0.220096 -2.002448 -0.558931 0.106149 0.000000 0.000000 0.000000
67.784174 74.816804 236.470783 0.143074 -0.428811 -12.533437 -0.232725 0.387542 12.534760 -0.000000 0.000000 0.000000 -0.000000 0.000000 0.000000 0.000000 0.000000 0.000000 -0.929999 2.366263 -0.463510 7.820614 13.083337 -2.621780 -2.876399 0.474473 0.860106 -10.524006 5.966695 3.326121 0.000000 0.000000 0.000000 0.000000 0.000000 0.000000 0.542817 -1.677935 -0.277792 5.369770 0.852337 -2.517444 -8.938773 5.621958 0.645697 -4.832684 -2.820417 -2.084221 0.000000 0.000000 0.000000 0.000000 0.000000 0.000000 -0.232725 0.387542 12.534760 -1.689625 0.605816 0.167415 8.079320 11.091078 8.565198 0.000000 0.000000 0.000000 -1.850851 1.161041 12.692211 2.929344 -0.507244 -0.176970 -1.518370 -0.607288 0.068439 0.000000 0.000000 0.000000
67.821749 74.810630 236.483772 0.181683 -0.434698 -12.532935 -0.271689 0.384911 12.534537 -0.000000 0.000000 0.000000 -0.000000 0.000000 0.000000 0.000000 0.000000 0.000000 -0.897473 2.323259 -0.455185 7.039928 11.925293 -2.394417 -2.596260 0.663725 0.792019 -10.074172 3.783265 2.580042 0.000000 0.000000 0.000000 0.000000 0.000000 0.000000 0.353147 -1.526663 -0.296455 4.639085 0.927831 -2.408841 -8.049558 -3.262244 13.613229 -0.944763 5.636478 -13.573753 0.000000 0.000000 0.000000 0.000000 0.000000 0.000000 -0.271689 0.384911 12.534537 -1.533397 0.714683 0.150228 -2.248035 14.050850 15.592260 0.000000 0.000000 0.000000 -2.097353 1.145066 12.709476 3.146908 -0.502932 -0.187527 -1.530580 -0.644860 0.066460 0.000000 0.000000 0.000000
67.851544 74.808163 236.493920 0.212675 -0.430470 -12.558011 -0.301189 0.373926 12.559793 -0.000000 0.000000 0.000000 -0.000000 0.000000 0.000000 0.000000 0.000000 0.000000 -0.888088 2.270107 -0.445365 6.434054 10.867341 -2.161198 -2.003564 0.096092 1.152158 -10.841887 3.731254 1.580408 0.000000 0.000000 0.000000 0.000000 0.000000 0.000000 0.004803 -1.192683 -0.314678 4.108488 0.797492 -2.241414 -5.156378 -10.530944 23.684502 0.669158 12.287679 -23.045976 0.000000 0.000000 0.000000 0.000000 0.000000 0.000000 -0.301189 0.373926 12.559793 -1.339380 0.819580 0.128704 0.473175 14.477304 14.762418 0.000000 0.000000 0.000000 -2.345997 1.090257 12.751664 3.457460 -0.445426 -0.202397 -1.618123 -0.709753 0.067613 0.000000 0.000000 0.000000
